<svg xmlns="http://www.w3.org/2000/svg" xmlns:xlink="http://www.w3.org/1999/xlink" width="181" height="46" viewBox="0 0 181 46"><defs><style>.a,.c{fill:#fff;stroke:#fff;}.b{clip-path:url(#a);}.c{stroke-miterlimit:10;stroke-width:0.75px;}</style><clipPath id="a"><rect class="a" width="181" height="46" transform="translate(0 0)"/></clipPath></defs><g transform="translate(0 0.143)"><g class="b" transform="translate(0 -0.143)"><path class="a" d="M106.6,13.973v1.85c-2,0-2.565-.309-3.312-1.428a5.211,5.211,0,0,1-5.341,4.122,5.534,5.534,0,0,1-5.586-5.63V11.068h1.819v1.607c0,2.515,1.461,4.089,3.815,4.089,2.11,0,3.7-1.4,3.7-3.051a1.573,1.573,0,0,0-1.64-1.72,1.787,1.787,0,0,0-.293.016V10.354h.715a3.472,3.472,0,0,1,3.214,1.931c.665,1.217,1.3,1.688,2.224,1.688ZM97.309,22.1H95.523V20.3h1.786Zm3.068,0H98.591V20.3h1.786Z" transform="translate(-42.686 -4.66)"/><path class="c" d="M106.6,13.973v1.85c-2,0-2.565-.309-3.312-1.428a5.211,5.211,0,0,1-5.341,4.122,5.534,5.534,0,0,1-5.586-5.63V11.068h1.819v1.607c0,2.515,1.461,4.089,3.815,4.089,2.11,0,3.7-1.4,3.7-3.051a1.573,1.573,0,0,0-1.64-1.72,1.787,1.787,0,0,0-.293.016V10.354h.715a3.472,3.472,0,0,1,3.214,1.931c.665,1.217,1.3,1.688,2.224,1.688ZM97.309,22.1H95.523V20.3h1.786Zm3.068,0H98.591V20.3h1.786Z" transform="translate(-42.686 -4.66)"/><rect class="a" width="3.588" height="1.85" transform="translate(63.457 9.313)"/><rect class="c" width="3.588" height="1.85" transform="translate(63.457 9.313)"/><rect class="a" width="3.588" height="1.85" transform="translate(66.672 9.313)"/><rect class="c" width="3.588" height="1.85" transform="translate(66.672 9.313)"/><rect class="a" width="3.588" height="1.85" transform="translate(69.887 9.313)"/><rect class="c" width="3.588" height="1.85" transform="translate(69.887 9.313)"/><rect class="a" width="3.588" height="1.85" transform="translate(73.102 9.313)"/><rect class="c" width="3.588" height="1.85" transform="translate(73.102 9.313)"/><rect class="a" width="3.588" height="1.85" transform="translate(76.317 9.313)"/><rect class="c" width="3.588" height="1.85" transform="translate(76.317 9.313)"/><rect class="a" width="3.588" height="1.85" transform="translate(79.532 9.313)"/><rect class="c" width="3.588" height="1.85" transform="translate(79.532 9.313)"/><rect class="a" width="3.588" height="1.85" transform="translate(82.747 9.313)"/><rect class="c" width="3.588" height="1.85" transform="translate(82.747 9.313)"/><rect class="a" width="3.588" height="1.85" transform="translate(85.96 9.313)"/><rect class="c" width="3.588" height="1.85" transform="translate(85.96 9.313)"/><path class="a" d="M173.219,11.521h-7.436V9.672h1.688a1.1,1.1,0,0,0,1.089-.552,2.861,2.861,0,0,0,.194-1.233V1.055h1.8V7.79a3.1,3.1,0,0,1-.39,1.882h3.053Z" transform="translate(-76.623 -0.359)"/><path class="c" d="M173.219,11.521h-7.436V9.672h1.688a1.1,1.1,0,0,0,1.089-.552,2.861,2.861,0,0,0,.194-1.233V1.055h1.8V7.79a3.1,3.1,0,0,1-.39,1.882h3.053Z" transform="translate(-76.623 -0.359)"/><path class="a" d="M189.626,10.073v1.136H178.765V9.359h8.913a3.939,3.939,0,0,0-.878-2.58,3.441,3.441,0,0,0-2.808-1.233h-4.053l4.5-5.168,2.213.041L183.53,3.842h.673a5.379,5.379,0,0,1,3.118.892c1.542,1.022,2.306,2.791,2.306,5.339" transform="translate(-82.623 -0.046)"/><path class="c" d="M189.626,10.073v1.136H178.765V9.359h8.913a3.939,3.939,0,0,0-.878-2.58,3.441,3.441,0,0,0-2.808-1.233h-4.053l4.5-5.168,2.213.041L183.53,3.842h.673a5.379,5.379,0,0,1,3.118.892C188.862,5.756,189.626,7.525,189.626,10.073Z" transform="translate(-82.623 -0.046)"/><path class="a" d="M211.038,14.175h-2.209c-.244,1.785-1.428,2.677-3.539,2.677V15.424a1.669,1.669,0,0,0,1.8-1.25h-1.738a3.639,3.639,0,0,1-3.555-3.78,3.5,3.5,0,0,1,3.637-3.6,3.387,3.387,0,0,1,3.377,3.651v1.882h2.224Zm-4.043-1.85V10.1A1.606,1.606,0,0,0,205.4,8.463a1.693,1.693,0,0,0-1.754,1.833,1.891,1.891,0,0,0,1.738,2.029Z" transform="translate(-93.269 -3.012)"/><path class="c" d="M211.038,14.175h-2.209c-.244,1.785-1.428,2.677-3.539,2.677V15.424a1.669,1.669,0,0,0,1.8-1.25h-1.738a3.639,3.639,0,0,1-3.555-3.78,3.5,3.5,0,0,1,3.637-3.6,3.387,3.387,0,0,1,3.377,3.651v1.882h2.224Zm-4.043-1.85V10.1A1.606,1.606,0,0,0,205.4,8.463a1.693,1.693,0,0,0-1.754,1.833,1.891,1.891,0,0,0,1.738,2.029Z" transform="translate(-93.269 -3.012)"/><rect class="a" width="3.588" height="1.85" transform="translate(117.149 9.313)"/><rect class="c" width="3.588" height="1.85" transform="translate(117.149 9.313)"/><rect class="a" width="3.588" height="1.85" transform="translate(120.363 9.313)"/><rect class="c" width="3.588" height="1.85" transform="translate(120.363 9.313)"/><rect class="a" width="3.588" height="1.85" transform="translate(123.579 9.313)"/><rect class="c" width="3.588" height="1.85" transform="translate(123.579 9.313)"/><path class="a" d="M240.311,8.585c0,1.963-.909,2.937-2.728,2.937h-1.917V9.672h1.542a1.151,1.151,0,0,0,1.154-.535,3.568,3.568,0,0,0,.129-1.168V1.056h1.819Z" transform="translate(-108.922 -0.359)"/><path class="c" d="M240.311,8.585c0,1.963-.909,2.937-2.728,2.937h-1.917V9.672h1.542a1.151,1.151,0,0,0,1.154-.535,3.568,3.568,0,0,0,.129-1.168V1.056h1.819Z" transform="translate(-108.922 -0.359)"/><path class="a" d="M0,41.017H4.1V60.612h12.27v3.732H0Z" transform="translate(0 -18.841)"/><path class="a" d="M37.623,52.4v-.067A11.956,11.956,0,0,1,49.86,40.273a11.845,11.845,0,0,1,12.17,12v.067A11.956,11.956,0,0,1,49.793,64.4a11.845,11.845,0,0,1-12.17-12m20.106,0v-.067a7.994,7.994,0,0,0-7.935-8.3c-4.635,0-7.869,3.7-7.869,8.231v.067a7.994,7.994,0,0,0,7.935,8.3c4.634,0,7.869-3.7,7.869-8.231" transform="translate(-17.389 -18.497)"/><path class="a" d="M95.894,41.017h4.1v11.73l11.1-11.73h5.034l-9.7,10.031,10.136,13.3H111.6l-7.969-10.5-3.635,3.732v6.765h-4.1Z" transform="translate(-44.321 -18.841)"/><path class="a" d="M263.992,41.263h4.1V60.857h12.27v3.732h-16.37Z" transform="translate(-122.014 -18.954)"/><path class="a" d="M303.772,55.392,294.5,41.263h4.834l6.534,10.33,6.6-10.33h4.7l-9.269,14.03v9.3h-4.134Z" transform="translate(-136.116 -18.954)"/><path class="a" d="M173.221,60.247l-2.3-2.891L157.419,40.34l-18.044,23.8H144.1l13.389-17.662,14.019,17.662h4.805Z" transform="translate(-64.417 -18.528)"/><rect class="a" width="6.977" height="3.667" transform="translate(89.625 37.271)"/><rect class="a" width="6.977" height="3.667" transform="translate(116.899 37.271)"/><path class="a" d="M186.857,40.226h-3.765v4.323l3.765,4.688Z" transform="translate(-84.623 -18.475)"/><path class="a" d="M212.257,40.279,200.613,56.174l2.44,3.039,9.324-12.728,13.992,17.629h4.806Z" transform="translate(-92.721 -18.5)"/><path class="a" d="M202.3,77.362h0l-.013-.016Z" transform="translate(-93.493 -35.642)"/></g></g></svg>